<svg xmlns="http://www.w3.org/2000/svg" viewBox="0 0 168 48" fill="none">
  <defs>
    <linearGradient id="lvd" x1="10.5" y1="17.6" x2="34.5" y2="31" gradientUnits="userSpaceOnUse">
      <stop offset="0" stop-color="#1E3A8A"/>
      <stop offset="1" stop-color="#0F1B3D"/>
    </linearGradient>
  </defs>
  <rect x="16" y="8" width="23" height="15" rx="3" fill="#3B82F6"/>
  <rect x="8" y="16.5" width="29" height="18" rx="3.5" fill="#0F1B3D"/>
  <rect x="8" y="15" width="29" height="18" rx="3.5" fill="#93C5FD"/>
  <rect x="10.5" y="16.1" width="24" height="0.9" rx="0.45" fill="#EFF6FF" opacity="0.5"/>
  <rect x="10.5" y="17.6" width="24" height="13.4" rx="2.5" fill="url(#lvd)"/>
  <path d="M 11.2 18.2 L 18 18.2 L 11.2 23.4 Z" fill="#2E4FA8" opacity="0.5"/>
  <circle cx="15.5" cy="21.3" r="1.8" fill="#60A5FA"/>
  <circle cx="22.5" cy="21.3" r="1.8" fill="#FBBF24"/>
  <circle cx="29.5" cy="21.3" r="1.8" fill="#60A5FA"/>
  <circle cx="15.5" cy="26.7" r="1.8" fill="#60A5FA"/>
  <circle cx="22.5" cy="26.7" r="1.8" fill="#60A5FA"/>
  <circle cx="29.5" cy="26.7" r="1.8" fill="#F87171"/>
  <rect x="15.5" y="35.4" width="14" height="2" rx="1" fill="#2563EB"/>
  <rect x="21.5" y="33" width="2" height="2.6" fill="#2563EB"/>
  <text x="52" y="32" font-family="Inter, 'Segoe UI', system-ui, sans-serif" font-size="27" font-weight="700" letter-spacing="-0.5" fill="#F1F5F9">Vantyr</text>
</svg>
