<svg xmlns="http://www.w3.org/2000/svg" viewBox="0 0 48 48" fill="none">
  <defs>
    <linearGradient id="scrvbd" x1="10.5" y1="17.6" x2="34.5" y2="31" gradientUnits="userSpaceOnUse">
      <stop offset="0" stop-color="#1E3A8A"></stop>
      <stop offset="1" stop-color="#0F1B3D"></stop>
    </linearGradient>
  </defs>
  <rect x="16" y="8" width="23" height="15" rx="3" fill="#3B82F6"></rect>
  <rect x="8" y="16.5" width="29" height="18" rx="3.5" fill="#0F1B3D"></rect>
  <rect x="8" y="15" width="29" height="18" rx="3.5" fill="#93C5FD"></rect>
  <rect x="10.5" y="16.1" width="24" height="0.9" rx="0.45" fill="#EFF6FF" opacity="0.5"></rect>
  <rect x="10.5" y="17.6" width="24" height="13.4" rx="2.5" fill="url(#scrvbd)"></rect>
  <path d="M 11.2 18.2 L 18 18.2 L 11.2 23.4 Z" fill="#2E4FA8" opacity="0.5"></path>
  <circle cx="15.5" cy="21.3" r="1.8" fill="#60A5FA"></circle>
  <circle cx="22.5" cy="21.3" r="1.8" fill="#FBBF24"></circle>
  <circle cx="29.5" cy="21.3" r="1.8" fill="#60A5FA"></circle>
  <circle cx="15.5" cy="26.7" r="1.8" fill="#60A5FA"></circle>
  <circle cx="22.5" cy="26.7" r="1.8" fill="#60A5FA"></circle>
  <circle cx="29.5" cy="26.7" r="1.8" fill="#F87171"></circle>
  <rect x="15.5" y="35.4" width="14" height="2" rx="1" fill="#2563EB"></rect>
  <rect x="21.5" y="33" width="2" height="2.6" fill="#2563EB"></rect>
</svg>
